<svg xmlns="http://www.w3.org/2000/svg" width="1200" height="300" viewBox="0 0 1200 300" role="img" aria-label="smart-notes-app - Write it down. Find it later. Never press save.">
  <defs>
    <linearGradient id="bg" x1="0" y1="0" x2="1" y2="1">
      <stop offset="0" stop-color="#0a0e1c"/><stop offset="0.55" stop-color="#131c33"/><stop offset="1" stop-color="#131c33"/>
    </linearGradient>
    <radialGradient id="g1" cx="0.14" cy="0.1" r="0.66">
      <stop offset="0" stop-color="#60a5fa" stop-opacity="0.20"/><stop offset="1" stop-color="#60a5fa" stop-opacity="0"/>
    </radialGradient>
    <radialGradient id="g2" cx="0.9" cy="0.95" r="0.7">
      <stop offset="0" stop-color="#a78bfa" stop-opacity="0.20"/><stop offset="1" stop-color="#a78bfa" stop-opacity="0"/>
    </radialGradient>
    <linearGradient id="mark" x1="0" y1="0" x2="1" y2="1">
      <stop offset="0" stop-color="#60a5fa"/><stop offset="1" stop-color="#a78bfa"/>
    </linearGradient>
    <pattern id="grid" width="30" height="30" patternUnits="userSpaceOnUse">
      <path d="M30 0H0V30" fill="none" stroke="#2c4370" stroke-opacity="0.055" stroke-width="1"/>
    </pattern>
  </defs>

  <rect width="1200" height="300" fill="url(#bg)"/>
  <rect width="1200" height="300" fill="url(#grid)"/>
  <rect width="1200" height="300" fill="url(#g1)"/>
  <rect width="1200" height="300" fill="url(#g2)"/>

  <g transform="translate(80,80)">
    <rect width="140" height="140" rx="34" fill="#141d33" stroke="#1a2440" stroke-width="1.5"/>
    <g transform="translate(20,20) scale(1.0)"><rect x="30" y="24" width="40" height="52" rx="6" fill="none" stroke="#60a5fa" stroke-width="7"/><path d="M40 40 H60 M40 50 H60 M40 60 H52" stroke="#60a5fa" stroke-width="5" stroke-linecap="round"/></g>
  </g>

  <text x="258" y="140" font-family="Segoe UI, system-ui, sans-serif" font-size="52" font-weight="700" letter-spacing="1.5" fill="#eef4ff">smart-notes-app</text>
  <rect x="260" y="166" width="640" height="1.6" fill="#2c4370"/>
  <text x="260" y="196" font-family="Segoe UI, system-ui, sans-serif" font-size="16.5" fill="#93a8c8">Write it down. Find it later. Never press save.</text>

  <g font-family="Segoe UI, system-ui, sans-serif" font-size="13" font-weight="600" fill="#d3e2ff">
    <rect x="260" y="232" width="92" height="32" rx="16" fill="#141d33" stroke="#334f7e"/>
    <text x="306" y="253" text-anchor="middle">React 19</text>
    <rect x="364" y="232" width="59" height="32" rx="16" fill="#141d33" stroke="#334f7e"/>
    <text x="393" y="253" text-anchor="middle">Vite</text>
    <rect x="434" y="232" width="100" height="32" rx="16" fill="#141d33" stroke="#334f7e"/>
    <text x="484" y="253" text-anchor="middle">Express 5</text>
    <rect x="546" y="232" width="92" height="32" rx="16" fill="#141d33" stroke="#334f7e"/>
    <text x="592" y="253" text-anchor="middle">Insforge</text>
    <rect x="650" y="232" width="108" height="32" rx="16" fill="#141d33" stroke="#334f7e"/>
    <text x="704" y="253" text-anchor="middle">TypeScript</text>
  </g>

  <g transform="translate(940,72)">
    <rect x="0" y="0" width="180" height="34" rx="17" fill="#141d33" stroke="#334f7e"/>
    <circle cx="24" cy="17" r="5" fill="#60a5fa"/>
    <text x="40" y="22" font-family="Segoe UI, system-ui, sans-serif" font-size="12.5" font-weight="600" fill="#d3e2ff">smart-notes-app</text>
  </g>

  <rect x="0" y="297" width="1200" height="3" fill="url(#mark)" opacity="0.55"/>
</svg>